<svg xmlns="http://www.w3.org/2000/svg" viewBox="0 0 400 400" width="400" height="400">
  <rect width="400" height="400" fill="#060a08"/>
  <!-- ===== LEAF (left side, centered at 164, 200) scale 1.3 ===== -->
  <g transform="translate(200, 210) scale(1.3)">
    
    <!-- Extended veins radiating outward -->
    <g stroke="#4ade80" stroke-width="0.4" opacity="0.12">
      <line x1="0" y1="-72" x2="0" y2="-110"/>
      <line x1="-22" y1="-58" x2="-42" y2="-92"/>
      <line x1="22" y1="-58" x2="42" y2="-92"/>
      <line x1="-38" y1="-36" x2="-72" y2="-60"/>
      <line x1="38" y1="-36" x2="72" y2="-60"/>
      <line x1="-48" y1="-12" x2="-85" y2="-20"/>
      <line x1="48" y1="-12" x2="85" y2="-20"/>
      <line x1="-40" y1="8" x2="-75" y2="15"/>
      <line x1="40" y1="8" x2="75" y2="15"/>
      <line x1="-32" y1="-80" x2="-10" y2="-95"/>
      <line x1="32" y1="-80" x2="10" y2="-95"/>
      <line x1="-60" y1="-48" x2="-48" y2="-70"/>
      <line x1="60" y1="-48" x2="48" y2="-70"/>
      <line x1="-78" y1="-15" x2="-65" y2="-45"/>
      <line x1="78" y1="-15" x2="65" y2="-45"/>
      <line x1="-42" y1="-90" x2="42" y2="-90" stroke-dasharray="2 4"/>
    </g>
    
    <!-- Extended vein endpoint nodes -->
    <circle cx="0" cy="-110" r="1" fill="#4ade80" opacity="0.15"/>
    <circle cx="-42" cy="-92" r="1" fill="#4ade80" opacity="0.15"/>
    <circle cx="42" cy="-92" r="1" fill="#4ade80" opacity="0.15"/>
    <circle cx="-72" cy="-60" r="1" fill="#4ade80" opacity="0.15"/>
    <circle cx="72" cy="-60" r="1" fill="#4ade80" opacity="0.15"/>
    <circle cx="-85" cy="-20" r="1" fill="#4ade80" opacity="0.15"/>
    <circle cx="85" cy="-20" r="1" fill="#4ade80" opacity="0.15"/>
    <circle cx="-75" cy="15" r="1" fill="#4ade80" opacity="0.15"/>
    <circle cx="75" cy="15" r="1" fill="#4ade80" opacity="0.15"/>
    
    <!-- Scattered pixel particles -->
    <rect x="-56" y="-76" width="2.5" height="2.5" fill="#4ade80" opacity="0.2" rx="0.3"/>
    <rect x="-31" y="-101" width="2.5" height="2.5" fill="#4ade80" opacity="0.15" rx="0.3"/>
    <rect x="34" y="-96" width="2.5" height="2.5" fill="#4ade80" opacity="0.18" rx="0.3"/>
    <rect x="59" y="-71" width="2.5" height="2.5" fill="#4ade80" opacity="0.14" rx="0.3"/>
    <rect x="-81" y="-41" width="2.5" height="2.5" fill="#4ade80" opacity="0.12" rx="0.3"/>
    <rect x="81" y="-36" width="2.5" height="2.5" fill="#4ade80" opacity="0.13" rx="0.3"/>
    <rect x="-71" y="4" width="2.5" height="2.5" fill="#4ade80" opacity="0.1" rx="0.3"/>
    <rect x="71" y="7" width="2.5" height="2.5" fill="#4ade80" opacity="0.11" rx="0.3"/>
    <rect x="-16" y="-106" width="2.5" height="2.5" fill="#4ade80" opacity="0.16" rx="0.3"/>
    <rect x="17" y="-109" width="2.5" height="2.5" fill="#4ade80" opacity="0.14" rx="0.3"/>
    
    <!-- ===== 7-FINGER FAN LEAF ===== -->
    
    <!-- Finger 1: center (rot 0, len 78) -->
    <g opacity="1">
      <path d="M0,-72 C-2,-66 -4,-62 -5,-58 L-8.5,-56 L-5.5,-52 L-9,-48 L-6,-44 L-9,-40 L-6,-36 L-8,-32 L-5.5,-28 C-3,-16 -1,-6 0,6 C1,-6 3,-16 5.5,-28 L8,-32 L6,-36 L9,-40 L6,-44 L9,-48 L5.5,-52 L8.5,-56 L5,-58 C4,-62 2,-66 0,-72Z" fill="none" stroke="#4ade80" stroke-width="1" stroke-linejoin="round"/>
      <line x1="0" y1="-64" x2="0" y2="6" stroke="#4ade80" stroke-width="0.45" opacity="0.35"/>
      <line x1="-3" y1="-52" x2="0" y2="-58" stroke="#4ade80" stroke-width="0.3" opacity="0.2"/>
      <line x1="3" y1="-52" x2="0" y2="-58" stroke="#4ade80" stroke-width="0.3" opacity="0.2"/>
      <line x1="-4" y1="-36" x2="0" y2="-44" stroke="#4ade80" stroke-width="0.3" opacity="0.18"/>
      <line x1="4" y1="-36" x2="0" y2="-44" stroke="#4ade80" stroke-width="0.3" opacity="0.18"/>
      <circle cx="0" cy="-68" r="1.2" fill="#4ade80" opacity="0.5"/>
    </g>
    
    <!-- Finger 2: left (rot -25, len 65) -->
    <g transform="rotate(-25, 0, 6)" opacity="0.9">
      <path d="M0,-59 C-1.67,-53.5 -3.33,-49.67 -4.17,-47.33 L-7.08,-45.67 L-4.58,-42.17 L-7.5,-39 L-5,-35.67 L-7.5,-32.33 L-5,-29 L-6.67,-25.67 L-4.58,-22.5 C-2.5,-12.83 -0.83,-4.17 0,6 C0.83,-4.17 2.5,-12.83 4.58,-22.5 L6.67,-25.67 L5,-29 L7.5,-32.33 L5,-35.67 L7.5,-39 L4.58,-42.17 L7.08,-45.67 L4.17,-47.33 C3.33,-49.67 1.67,-53.5 0,-59Z" fill="none" stroke="#4ade80" stroke-width="0.82" stroke-linejoin="round"/>
      <line x1="0" y1="-52" x2="0" y2="6" stroke="#4ade80" stroke-width="0.45" opacity="0.35"/>
      <line x1="-2.5" y1="-42" x2="0" y2="-47" stroke="#4ade80" stroke-width="0.3" opacity="0.2"/>
      <line x1="2.5" y1="-42" x2="0" y2="-47" stroke="#4ade80" stroke-width="0.3" opacity="0.2"/>
      <line x1="-3.33" y1="-28" x2="0" y2="-35" stroke="#4ade80" stroke-width="0.3" opacity="0.18"/>
      <line x1="3.33" y1="-28" x2="0" y2="-35" stroke="#4ade80" stroke-width="0.3" opacity="0.18"/>
      <circle cx="0" cy="-56" r="1.2" fill="#4ade80" opacity="0.5"/>
    </g>
    
    <!-- Finger 3: right (rot 25, len 65) -->
    <g transform="rotate(25, 0, 6)" opacity="0.9">
      <path d="M0,-59 C-1.67,-53.5 -3.33,-49.67 -4.17,-47.33 L-7.08,-45.67 L-4.58,-42.17 L-7.5,-39 L-5,-35.67 L-7.5,-32.33 L-5,-29 L-6.67,-25.67 L-4.58,-22.5 C-2.5,-12.83 -0.83,-4.17 0,6 C0.83,-4.17 2.5,-12.83 4.58,-22.5 L6.67,-25.67 L5,-29 L7.5,-32.33 L5,-35.67 L7.5,-39 L4.58,-42.17 L7.08,-45.67 L4.17,-47.33 C3.33,-49.67 1.67,-53.5 0,-59Z" fill="none" stroke="#4ade80" stroke-width="0.82" stroke-linejoin="round"/>
      <line x1="0" y1="-52" x2="0" y2="6" stroke="#4ade80" stroke-width="0.45" opacity="0.35"/>
      <line x1="-2.5" y1="-42" x2="0" y2="-47" stroke="#4ade80" stroke-width="0.3" opacity="0.2"/>
      <line x1="2.5" y1="-42" x2="0" y2="-47" stroke="#4ade80" stroke-width="0.3" opacity="0.2"/>
      <line x1="-3.33" y1="-28" x2="0" y2="-35" stroke="#4ade80" stroke-width="0.3" opacity="0.18"/>
      <line x1="3.33" y1="-28" x2="0" y2="-35" stroke="#4ade80" stroke-width="0.3" opacity="0.18"/>
      <circle cx="0" cy="-56" r="1.2" fill="#4ade80" opacity="0.5"/>
    </g>
    
    <!-- Finger 4: left (rot -50, len 52) -->
    <g transform="rotate(-50, 0, 6)" opacity="0.75">
      <path d="M0,-46 C-1.33,-42 -2.67,-39 -3.33,-37.33 L-5.67,-36 L-3.67,-33.17 L-6,-30.67 L-4,-28 L-6,-25.33 L-4,-22.67 L-5.33,-20 L-3.67,-17.33 C-2,-9.83 -0.67,-2.83 0,6 C0.67,-2.83 2,-9.83 3.67,-17.33 L5.33,-20 L4,-22.67 L6,-25.33 L4,-28 L6,-30.67 L3.67,-33.17 L5.67,-36 L3.33,-37.33 C2.67,-39 1.33,-42 0,-46Z" fill="none" stroke="#4ade80" stroke-width="0.82" stroke-linejoin="round"/>
      <line x1="0" y1="-40" x2="0" y2="6" stroke="#4ade80" stroke-width="0.45" opacity="0.35"/>
      <line x1="-2" y1="-32" x2="0" y2="-36" stroke="#4ade80" stroke-width="0.3" opacity="0.2"/>
      <line x1="2" y1="-32" x2="0" y2="-36" stroke="#4ade80" stroke-width="0.3" opacity="0.2"/>
      <circle cx="0" cy="-43" r="1.2" fill="#4ade80" opacity="0.5"/>
    </g>
    
    <!-- Finger 5: right (rot 50, len 52) -->
    <g transform="rotate(50, 0, 6)" opacity="0.75">
      <path d="M0,-46 C-1.33,-42 -2.67,-39 -3.33,-37.33 L-5.67,-36 L-3.67,-33.17 L-6,-30.67 L-4,-28 L-6,-25.33 L-4,-22.67 L-5.33,-20 L-3.67,-17.33 C-2,-9.83 -0.67,-2.83 0,6 C0.67,-2.83 2,-9.83 3.67,-17.33 L5.33,-20 L4,-22.67 L6,-25.33 L4,-28 L6,-30.67 L3.67,-33.17 L5.67,-36 L3.33,-37.33 C2.67,-39 1.33,-42 0,-46Z" fill="none" stroke="#4ade80" stroke-width="0.82" stroke-linejoin="round"/>
      <line x1="0" y1="-40" x2="0" y2="6" stroke="#4ade80" stroke-width="0.45" opacity="0.35"/>
      <line x1="-2" y1="-32" x2="0" y2="-36" stroke="#4ade80" stroke-width="0.3" opacity="0.2"/>
      <line x1="2" y1="-32" x2="0" y2="-36" stroke="#4ade80" stroke-width="0.3" opacity="0.2"/>
      <circle cx="0" cy="-43" r="1.2" fill="#4ade80" opacity="0.5"/>
    </g>
    
    <!-- Finger 6: left (rot -72, len 38) -->
    <g transform="rotate(-72, 0, 6)" opacity="0.6">
      <path d="M0,-32 C-0.97,-29.08 -1.95,-27.15 -2.44,-25.92 L-4.14,-24.95 L-2.68,-22.88 L-4.38,-21.08 L-2.92,-18.92 L-4.38,-16.77 L-2.92,-14.62 L-3.9,-12.46 L-2.68,-10.31 C-1.46,-5.54 -0.49,-0.77 0,6 C0.49,-0.77 1.46,-5.54 2.68,-10.31 L3.9,-12.46 L2.92,-14.62 L4.38,-16.77 L2.92,-18.92 L4.38,-21.08 L2.68,-22.88 L4.14,-24.95 L2.44,-25.92 C1.95,-27.15 0.97,-29.08 0,-32Z" fill="none" stroke="#4ade80" stroke-width="0.82" stroke-linejoin="round"/>
      <line x1="0" y1="-27" x2="0" y2="6" stroke="#4ade80" stroke-width="0.45" opacity="0.35"/>
      <circle cx="0" cy="-30" r="1.2" fill="#4ade80" opacity="0.5"/>
    </g>
    
    <!-- Finger 7: right (rot 72, len 38) -->
    <g transform="rotate(72, 0, 6)" opacity="0.6">
      <path d="M0,-32 C-0.97,-29.08 -1.95,-27.15 -2.44,-25.92 L-4.14,-24.95 L-2.68,-22.88 L-4.38,-21.08 L-2.92,-18.92 L-4.38,-16.77 L-2.92,-14.62 L-3.9,-12.46 L-2.68,-10.31 C-1.46,-5.54 -0.49,-0.77 0,6 C0.49,-0.77 1.46,-5.54 2.68,-10.31 L3.9,-12.46 L2.92,-14.62 L4.38,-16.77 L2.92,-18.92 L4.38,-21.08 L2.68,-22.88 L4.14,-24.95 L2.44,-25.92 C1.95,-27.15 0.97,-29.08 0,-32Z" fill="none" stroke="#4ade80" stroke-width="0.82" stroke-linejoin="round"/>
      <line x1="0" y1="-27" x2="0" y2="6" stroke="#4ade80" stroke-width="0.45" opacity="0.35"/>
      <circle cx="0" cy="-30" r="1.2" fill="#4ade80" opacity="0.5"/>
    </g>
    
    <!-- Inner circuit connections -->
    <g stroke="#4ade80" stroke-width="0.4" opacity="0.25">
      <line x1="0" y1="-30" x2="-20" y2="-28"/>
      <line x1="0" y1="-30" x2="20" y2="-28"/>
      <line x1="-20" y1="-28" x2="-38" y2="-18"/>
      <line x1="20" y1="-28" x2="38" y2="-18"/>
      <line x1="0" y1="-50" x2="-14" y2="-44"/>
      <line x1="0" y1="-50" x2="14" y2="-44"/>
    </g>
    
    <!-- Center node -->
    <circle cx="0" cy="6" r="1.8" fill="#4ade80" opacity="0.6"/>
    
    <!-- Stem -->
    <line x1="0" y1="6" x2="0" y2="44" stroke="#4ade80" stroke-width="1.4" stroke-linecap="round" opacity="0.55"/>
    <circle cx="0" cy="44" r="1.8" fill="#4ade80" opacity="0.4"/>
  </g>
</svg>
