<svg xmlns="http://www.w3.org/2000/svg" viewBox="100 14 200 100">
  <!-- ===== GLITCH PIXEL TEXT: TRUE SOURCE — transparent bg ===== -->

  <!-- Glitch red offset -->
  <g transform="translate(142, 18)" opacity="0.15">
    <!-- T --><rect x="0" y="0" width="3.5" height="3.5" fill="#ff4a4a"/><rect x="5" y="0" width="3.5" height="3.5" fill="#ff4a4a"/><rect x="10" y="0" width="3.5" height="3.5" fill="#ff4a4a"/><rect x="15" y="0" width="3.5" height="3.5" fill="#ff4a4a"/><rect x="20" y="0" width="3.5" height="3.5" fill="#ff4a4a"/><rect x="10" y="5" width="3.5" height="3.5" fill="#ff4a4a"/><rect x="10" y="10" width="3.5" height="3.5" fill="#ff4a4a"/><rect x="10" y="15" width="3.5" height="3.5" fill="#ff4a4a"/><rect x="10" y="20" width="3.5" height="3.5" fill="#ff4a4a"/><rect x="10" y="25" width="3.5" height="3.5" fill="#ff4a4a"/><rect x="10" y="30" width="3.5" height="3.5" fill="#ff4a4a"/>
    <!-- R --><rect x="32" y="0" width="3.5" height="3.5" fill="#ff4a4a"/><rect x="37" y="0" width="3.5" height="3.5" fill="#ff4a4a"/><rect x="42" y="0" width="3.5" height="3.5" fill="#ff4a4a"/><rect x="47" y="0" width="3.5" height="3.5" fill="#ff4a4a"/><rect x="32" y="5" width="3.5" height="3.5" fill="#ff4a4a"/><rect x="52" y="5" width="3.5" height="3.5" fill="#ff4a4a"/><rect x="32" y="10" width="3.5" height="3.5" fill="#ff4a4a"/><rect x="52" y="10" width="3.5" height="3.5" fill="#ff4a4a"/><rect x="32" y="15" width="3.5" height="3.5" fill="#ff4a4a"/><rect x="37" y="15" width="3.5" height="3.5" fill="#ff4a4a"/><rect x="42" y="15" width="3.5" height="3.5" fill="#ff4a4a"/><rect x="47" y="15" width="3.5" height="3.5" fill="#ff4a4a"/><rect x="32" y="20" width="3.5" height="3.5" fill="#ff4a4a"/><rect x="42" y="20" width="3.5" height="3.5" fill="#ff4a4a"/><rect x="32" y="25" width="3.5" height="3.5" fill="#ff4a4a"/><rect x="47" y="25" width="3.5" height="3.5" fill="#ff4a4a"/><rect x="32" y="30" width="3.5" height="3.5" fill="#ff4a4a"/><rect x="52" y="30" width="3.5" height="3.5" fill="#ff4a4a"/>
    <!-- U --><rect x="64" y="0" width="3.5" height="3.5" fill="#ff4a4a"/><rect x="84" y="0" width="3.5" height="3.5" fill="#ff4a4a"/><rect x="64" y="5" width="3.5" height="3.5" fill="#ff4a4a"/><rect x="84" y="5" width="3.5" height="3.5" fill="#ff4a4a"/><rect x="64" y="10" width="3.5" height="3.5" fill="#ff4a4a"/><rect x="84" y="10" width="3.5" height="3.5" fill="#ff4a4a"/><rect x="64" y="15" width="3.5" height="3.5" fill="#ff4a4a"/><rect x="84" y="15" width="3.5" height="3.5" fill="#ff4a4a"/><rect x="64" y="20" width="3.5" height="3.5" fill="#ff4a4a"/><rect x="84" y="20" width="3.5" height="3.5" fill="#ff4a4a"/><rect x="64" y="25" width="3.5" height="3.5" fill="#ff4a4a"/><rect x="84" y="25" width="3.5" height="3.5" fill="#ff4a4a"/><rect x="69" y="30" width="3.5" height="3.5" fill="#ff4a4a"/><rect x="74" y="30" width="3.5" height="3.5" fill="#ff4a4a"/><rect x="79" y="30" width="3.5" height="3.5" fill="#ff4a4a"/>
    <!-- E --><rect x="96" y="0" width="3.5" height="3.5" fill="#ff4a4a"/><rect x="101" y="0" width="3.5" height="3.5" fill="#ff4a4a"/><rect x="106" y="0" width="3.5" height="3.5" fill="#ff4a4a"/><rect x="111" y="0" width="3.5" height="3.5" fill="#ff4a4a"/><rect x="116" y="0" width="3.5" height="3.5" fill="#ff4a4a"/><rect x="96" y="5" width="3.5" height="3.5" fill="#ff4a4a"/><rect x="96" y="10" width="3.5" height="3.5" fill="#ff4a4a"/><rect x="96" y="15" width="3.5" height="3.5" fill="#ff4a4a"/><rect x="101" y="15" width="3.5" height="3.5" fill="#ff4a4a"/><rect x="106" y="15" width="3.5" height="3.5" fill="#ff4a4a"/><rect x="111" y="15" width="3.5" height="3.5" fill="#ff4a4a"/><rect x="96" y="20" width="3.5" height="3.5" fill="#ff4a4a"/><rect x="96" y="25" width="3.5" height="3.5" fill="#ff4a4a"/><rect x="96" y="30" width="3.5" height="3.5" fill="#ff4a4a"/><rect x="101" y="30" width="3.5" height="3.5" fill="#ff4a4a"/><rect x="106" y="30" width="3.5" height="3.5" fill="#ff4a4a"/><rect x="111" y="30" width="3.5" height="3.5" fill="#ff4a4a"/><rect x="116" y="30" width="3.5" height="3.5" fill="#ff4a4a"/>
  </g>

  <!-- Glitch blue offset -->
  <g transform="translate(138, 22)" opacity="0.12">
    <rect x="0" y="0" width="3.5" height="3.5" fill="#4a8aff"/><rect x="5" y="0" width="3.5" height="3.5" fill="#4a8aff"/><rect x="10" y="0" width="3.5" height="3.5" fill="#4a8aff"/><rect x="15" y="0" width="3.5" height="3.5" fill="#4a8aff"/><rect x="20" y="0" width="3.5" height="3.5" fill="#4a8aff"/><rect x="10" y="5" width="3.5" height="3.5" fill="#4a8aff"/><rect x="10" y="10" width="3.5" height="3.5" fill="#4a8aff"/><rect x="10" y="15" width="3.5" height="3.5" fill="#4a8aff"/><rect x="10" y="20" width="3.5" height="3.5" fill="#4a8aff"/><rect x="10" y="25" width="3.5" height="3.5" fill="#4a8aff"/><rect x="10" y="30" width="3.5" height="3.5" fill="#4a8aff"/>
    <rect x="32" y="0" width="3.5" height="3.5" fill="#4a8aff"/><rect x="37" y="0" width="3.5" height="3.5" fill="#4a8aff"/><rect x="42" y="0" width="3.5" height="3.5" fill="#4a8aff"/><rect x="47" y="0" width="3.5" height="3.5" fill="#4a8aff"/><rect x="32" y="5" width="3.5" height="3.5" fill="#4a8aff"/><rect x="52" y="5" width="3.5" height="3.5" fill="#4a8aff"/><rect x="32" y="10" width="3.5" height="3.5" fill="#4a8aff"/><rect x="52" y="10" width="3.5" height="3.5" fill="#4a8aff"/><rect x="32" y="15" width="3.5" height="3.5" fill="#4a8aff"/><rect x="37" y="15" width="3.5" height="3.5" fill="#4a8aff"/><rect x="42" y="15" width="3.5" height="3.5" fill="#4a8aff"/><rect x="47" y="15" width="3.5" height="3.5" fill="#4a8aff"/><rect x="32" y="20" width="3.5" height="3.5" fill="#4a8aff"/><rect x="42" y="20" width="3.5" height="3.5" fill="#4a8aff"/><rect x="32" y="25" width="3.5" height="3.5" fill="#4a8aff"/><rect x="47" y="25" width="3.5" height="3.5" fill="#4a8aff"/><rect x="32" y="30" width="3.5" height="3.5" fill="#4a8aff"/><rect x="52" y="30" width="3.5" height="3.5" fill="#4a8aff"/>
    <rect x="64" y="0" width="3.5" height="3.5" fill="#4a8aff"/><rect x="84" y="0" width="3.5" height="3.5" fill="#4a8aff"/><rect x="64" y="5" width="3.5" height="3.5" fill="#4a8aff"/><rect x="84" y="5" width="3.5" height="3.5" fill="#4a8aff"/><rect x="64" y="10" width="3.5" height="3.5" fill="#4a8aff"/><rect x="84" y="10" width="3.5" height="3.5" fill="#4a8aff"/><rect x="64" y="15" width="3.5" height="3.5" fill="#4a8aff"/><rect x="84" y="15" width="3.5" height="3.5" fill="#4a8aff"/><rect x="64" y="20" width="3.5" height="3.5" fill="#4a8aff"/><rect x="84" y="20" width="3.5" height="3.5" fill="#4a8aff"/><rect x="64" y="25" width="3.5" height="3.5" fill="#4a8aff"/><rect x="84" y="25" width="3.5" height="3.5" fill="#4a8aff"/><rect x="69" y="30" width="3.5" height="3.5" fill="#4a8aff"/><rect x="74" y="30" width="3.5" height="3.5" fill="#4a8aff"/><rect x="79" y="30" width="3.5" height="3.5" fill="#4a8aff"/>
    <rect x="96" y="0" width="3.5" height="3.5" fill="#4a8aff"/><rect x="101" y="0" width="3.5" height="3.5" fill="#4a8aff"/><rect x="106" y="0" width="3.5" height="3.5" fill="#4a8aff"/><rect x="111" y="0" width="3.5" height="3.5" fill="#4a8aff"/><rect x="116" y="0" width="3.5" height="3.5" fill="#4a8aff"/><rect x="96" y="5" width="3.5" height="3.5" fill="#4a8aff"/><rect x="96" y="10" width="3.5" height="3.5" fill="#4a8aff"/><rect x="96" y="15" width="3.5" height="3.5" fill="#4a8aff"/><rect x="101" y="15" width="3.5" height="3.5" fill="#4a8aff"/><rect x="106" y="15" width="3.5" height="3.5" fill="#4a8aff"/><rect x="111" y="15" width="3.5" height="3.5" fill="#4a8aff"/><rect x="96" y="20" width="3.5" height="3.5" fill="#4a8aff"/><rect x="96" y="25" width="3.5" height="3.5" fill="#4a8aff"/><rect x="96" y="30" width="3.5" height="3.5" fill="#4a8aff"/><rect x="101" y="30" width="3.5" height="3.5" fill="#4a8aff"/><rect x="106" y="30" width="3.5" height="3.5" fill="#4a8aff"/><rect x="111" y="30" width="3.5" height="3.5" fill="#4a8aff"/><rect x="116" y="30" width="3.5" height="3.5" fill="#4a8aff"/>
  </g>

  <!-- Main TRUE text -->
  <g transform="translate(140, 20)">
    <rect x="0" y="0" width="3.5" height="3.5" fill="#4ade80"/><rect x="5" y="0" width="3.5" height="3.5" fill="#4ade80"/><rect x="10" y="0" width="3.5" height="3.5" fill="#4ade80"/><rect x="15" y="0" width="3.5" height="3.5" fill="#4ade80"/><rect x="20" y="0" width="3.5" height="3.5" fill="#4ade80"/><rect x="10" y="5" width="3.5" height="3.5" fill="#4ade80"/><rect x="10" y="10" width="3.5" height="3.5" fill="#4ade80"/><rect x="10" y="15" width="3.5" height="3.5" fill="#4ade80"/><rect x="10" y="20" width="3.5" height="3.5" fill="#4ade80"/><rect x="10" y="25" width="3.5" height="3.5" fill="#4ade80"/><rect x="10" y="30" width="3.5" height="3.5" fill="#4ade80"/>
    <rect x="32" y="0" width="3.5" height="3.5" fill="#4ade80"/><rect x="37" y="0" width="3.5" height="3.5" fill="#4ade80"/><rect x="42" y="0" width="3.5" height="3.5" fill="#4ade80"/><rect x="47" y="0" width="3.5" height="3.5" fill="#4ade80"/><rect x="32" y="5" width="3.5" height="3.5" fill="#4ade80"/><rect x="52" y="5" width="3.5" height="3.5" fill="#4ade80"/><rect x="32" y="10" width="3.5" height="3.5" fill="#4ade80"/><rect x="52" y="10" width="3.5" height="3.5" fill="#4ade80"/><rect x="32" y="15" width="3.5" height="3.5" fill="#4ade80"/><rect x="37" y="15" width="3.5" height="3.5" fill="#4ade80"/><rect x="42" y="15" width="3.5" height="3.5" fill="#4ade80"/><rect x="47" y="15" width="3.5" height="3.5" fill="#4ade80"/><rect x="32" y="20" width="3.5" height="3.5" fill="#4ade80"/><rect x="42" y="20" width="3.5" height="3.5" fill="#4ade80"/><rect x="32" y="25" width="3.5" height="3.5" fill="#4ade80"/><rect x="47" y="25" width="3.5" height="3.5" fill="#4ade80"/><rect x="32" y="30" width="3.5" height="3.5" fill="#4ade80"/><rect x="52" y="30" width="3.5" height="3.5" fill="#4ade80"/>
    <rect x="64" y="0" width="3.5" height="3.5" fill="#4ade80"/><rect x="84" y="0" width="3.5" height="3.5" fill="#4ade80"/><rect x="64" y="5" width="3.5" height="3.5" fill="#4ade80"/><rect x="84" y="5" width="3.5" height="3.5" fill="#4ade80"/><rect x="64" y="10" width="3.5" height="3.5" fill="#4ade80"/><rect x="84" y="10" width="3.5" height="3.5" fill="#4ade80"/><rect x="64" y="15" width="3.5" height="3.5" fill="#4ade80"/><rect x="84" y="15" width="3.5" height="3.5" fill="#4ade80"/><rect x="64" y="20" width="3.5" height="3.5" fill="#4ade80"/><rect x="84" y="20" width="3.5" height="3.5" fill="#4ade80"/><rect x="64" y="25" width="3.5" height="3.5" fill="#4ade80"/><rect x="84" y="25" width="3.5" height="3.5" fill="#4ade80"/><rect x="69" y="30" width="3.5" height="3.5" fill="#4ade80"/><rect x="74" y="30" width="3.5" height="3.5" fill="#4ade80"/><rect x="79" y="30" width="3.5" height="3.5" fill="#4ade80"/>
    <rect x="96" y="0" width="3.5" height="3.5" fill="#4ade80"/><rect x="101" y="0" width="3.5" height="3.5" fill="#4ade80"/><rect x="106" y="0" width="3.5" height="3.5" fill="#4ade80"/><rect x="111" y="0" width="3.5" height="3.5" fill="#4ade80"/><rect x="116" y="0" width="3.5" height="3.5" fill="#4ade80"/><rect x="96" y="5" width="3.5" height="3.5" fill="#4ade80"/><rect x="96" y="10" width="3.5" height="3.5" fill="#4ade80"/><rect x="96" y="15" width="3.5" height="3.5" fill="#4ade80"/><rect x="101" y="15" width="3.5" height="3.5" fill="#4ade80"/><rect x="106" y="15" width="3.5" height="3.5" fill="#4ade80"/><rect x="111" y="15" width="3.5" height="3.5" fill="#4ade80"/><rect x="96" y="20" width="3.5" height="3.5" fill="#4ade80"/><rect x="96" y="25" width="3.5" height="3.5" fill="#4ade80"/><rect x="96" y="30" width="3.5" height="3.5" fill="#4ade80"/><rect x="101" y="30" width="3.5" height="3.5" fill="#4ade80"/><rect x="106" y="30" width="3.5" height="3.5" fill="#4ade80"/><rect x="111" y="30" width="3.5" height="3.5" fill="#4ade80"/><rect x="116" y="30" width="3.5" height="3.5" fill="#4ade80"/>
  </g>

  <!-- Glitch scan line -->
  <line x1="136" y1="56" x2="280" y2="56" stroke="#4ade80" stroke-width="0.3" opacity="0.08"/>

  <!-- Glitch red SOURCE -->
  <g transform="translate(110, 72)" opacity="0.12">
    <!-- S --><rect x="5" y="0" width="3.5" height="3.5" fill="#ff4a4a"/><rect x="10" y="0" width="3.5" height="3.5" fill="#ff4a4a"/><rect x="15" y="0" width="3.5" height="3.5" fill="#ff4a4a"/><rect x="20" y="0" width="3.5" height="3.5" fill="#ff4a4a"/><rect x="0" y="5" width="3.5" height="3.5" fill="#ff4a4a"/><rect x="0" y="10" width="3.5" height="3.5" fill="#ff4a4a"/><rect x="5" y="15" width="3.5" height="3.5" fill="#ff4a4a"/><rect x="10" y="15" width="3.5" height="3.5" fill="#ff4a4a"/><rect x="15" y="15" width="3.5" height="3.5" fill="#ff4a4a"/><rect x="20" y="20" width="3.5" height="3.5" fill="#ff4a4a"/><rect x="20" y="25" width="3.5" height="3.5" fill="#ff4a4a"/><rect x="0" y="30" width="3.5" height="3.5" fill="#ff4a4a"/><rect x="5" y="30" width="3.5" height="3.5" fill="#ff4a4a"/><rect x="10" y="30" width="3.5" height="3.5" fill="#ff4a4a"/><rect x="15" y="30" width="3.5" height="3.5" fill="#ff4a4a"/>
    <!-- O --><rect x="37" y="0" width="3.5" height="3.5" fill="#ff4a4a"/><rect x="42" y="0" width="3.5" height="3.5" fill="#ff4a4a"/><rect x="47" y="0" width="3.5" height="3.5" fill="#ff4a4a"/><rect x="32" y="5" width="3.5" height="3.5" fill="#ff4a4a"/><rect x="52" y="5" width="3.5" height="3.5" fill="#ff4a4a"/><rect x="32" y="10" width="3.5" height="3.5" fill="#ff4a4a"/><rect x="52" y="10" width="3.5" height="3.5" fill="#ff4a4a"/><rect x="32" y="15" width="3.5" height="3.5" fill="#ff4a4a"/><rect x="52" y="15" width="3.5" height="3.5" fill="#ff4a4a"/><rect x="32" y="20" width="3.5" height="3.5" fill="#ff4a4a"/><rect x="52" y="20" width="3.5" height="3.5" fill="#ff4a4a"/><rect x="32" y="25" width="3.5" height="3.5" fill="#ff4a4a"/><rect x="52" y="25" width="3.5" height="3.5" fill="#ff4a4a"/><rect x="37" y="30" width="3.5" height="3.5" fill="#ff4a4a"/><rect x="42" y="30" width="3.5" height="3.5" fill="#ff4a4a"/><rect x="47" y="30" width="3.5" height="3.5" fill="#ff4a4a"/>
    <!-- U --><rect x="64" y="0" width="3.5" height="3.5" fill="#ff4a4a"/><rect x="84" y="0" width="3.5" height="3.5" fill="#ff4a4a"/><rect x="64" y="5" width="3.5" height="3.5" fill="#ff4a4a"/><rect x="84" y="5" width="3.5" height="3.5" fill="#ff4a4a"/><rect x="64" y="10" width="3.5" height="3.5" fill="#ff4a4a"/><rect x="84" y="10" width="3.5" height="3.5" fill="#ff4a4a"/><rect x="64" y="15" width="3.5" height="3.5" fill="#ff4a4a"/><rect x="84" y="15" width="3.5" height="3.5" fill="#ff4a4a"/><rect x="64" y="20" width="3.5" height="3.5" fill="#ff4a4a"/><rect x="84" y="20" width="3.5" height="3.5" fill="#ff4a4a"/><rect x="64" y="25" width="3.5" height="3.5" fill="#ff4a4a"/><rect x="84" y="25" width="3.5" height="3.5" fill="#ff4a4a"/><rect x="69" y="30" width="3.5" height="3.5" fill="#ff4a4a"/><rect x="74" y="30" width="3.5" height="3.5" fill="#ff4a4a"/><rect x="79" y="30" width="3.5" height="3.5" fill="#ff4a4a"/>
    <!-- R --><rect x="96" y="0" width="3.5" height="3.5" fill="#ff4a4a"/><rect x="101" y="0" width="3.5" height="3.5" fill="#ff4a4a"/><rect x="106" y="0" width="3.5" height="3.5" fill="#ff4a4a"/><rect x="111" y="0" width="3.5" height="3.5" fill="#ff4a4a"/><rect x="96" y="5" width="3.5" height="3.5" fill="#ff4a4a"/><rect x="116" y="5" width="3.5" height="3.5" fill="#ff4a4a"/><rect x="96" y="10" width="3.5" height="3.5" fill="#ff4a4a"/><rect x="116" y="10" width="3.5" height="3.5" fill="#ff4a4a"/><rect x="96" y="15" width="3.5" height="3.5" fill="#ff4a4a"/><rect x="101" y="15" width="3.5" height="3.5" fill="#ff4a4a"/><rect x="106" y="15" width="3.5" height="3.5" fill="#ff4a4a"/><rect x="111" y="15" width="3.5" height="3.5" fill="#ff4a4a"/><rect x="96" y="20" width="3.5" height="3.5" fill="#ff4a4a"/><rect x="106" y="20" width="3.5" height="3.5" fill="#ff4a4a"/><rect x="96" y="25" width="3.5" height="3.5" fill="#ff4a4a"/><rect x="111" y="25" width="3.5" height="3.5" fill="#ff4a4a"/><rect x="96" y="30" width="3.5" height="3.5" fill="#ff4a4a"/><rect x="116" y="30" width="3.5" height="3.5" fill="#ff4a4a"/>
    <!-- C --><rect x="133" y="0" width="3.5" height="3.5" fill="#ff4a4a"/><rect x="138" y="0" width="3.5" height="3.5" fill="#ff4a4a"/><rect x="143" y="0" width="3.5" height="3.5" fill="#ff4a4a"/><rect x="148" y="0" width="3.5" height="3.5" fill="#ff4a4a"/><rect x="128" y="5" width="3.5" height="3.5" fill="#ff4a4a"/><rect x="128" y="10" width="3.5" height="3.5" fill="#ff4a4a"/><rect x="128" y="15" width="3.5" height="3.5" fill="#ff4a4a"/><rect x="128" y="20" width="3.5" height="3.5" fill="#ff4a4a"/><rect x="128" y="25" width="3.5" height="3.5" fill="#ff4a4a"/><rect x="133" y="30" width="3.5" height="3.5" fill="#ff4a4a"/><rect x="138" y="30" width="3.5" height="3.5" fill="#ff4a4a"/><rect x="143" y="30" width="3.5" height="3.5" fill="#ff4a4a"/><rect x="148" y="30" width="3.5" height="3.5" fill="#ff4a4a"/>
    <!-- E --><rect x="160" y="0" width="3.5" height="3.5" fill="#ff4a4a"/><rect x="165" y="0" width="3.5" height="3.5" fill="#ff4a4a"/><rect x="170" y="0" width="3.5" height="3.5" fill="#ff4a4a"/><rect x="175" y="0" width="3.5" height="3.5" fill="#ff4a4a"/><rect x="180" y="0" width="3.5" height="3.5" fill="#ff4a4a"/><rect x="160" y="5" width="3.5" height="3.5" fill="#ff4a4a"/><rect x="160" y="10" width="3.5" height="3.5" fill="#ff4a4a"/><rect x="160" y="15" width="3.5" height="3.5" fill="#ff4a4a"/><rect x="165" y="15" width="3.5" height="3.5" fill="#ff4a4a"/><rect x="170" y="15" width="3.5" height="3.5" fill="#ff4a4a"/><rect x="175" y="15" width="3.5" height="3.5" fill="#ff4a4a"/><rect x="160" y="20" width="3.5" height="3.5" fill="#ff4a4a"/><rect x="160" y="25" width="3.5" height="3.5" fill="#ff4a4a"/><rect x="160" y="30" width="3.5" height="3.5" fill="#ff4a4a"/><rect x="165" y="30" width="3.5" height="3.5" fill="#ff4a4a"/><rect x="170" y="30" width="3.5" height="3.5" fill="#ff4a4a"/><rect x="175" y="30" width="3.5" height="3.5" fill="#ff4a4a"/><rect x="180" y="30" width="3.5" height="3.5" fill="#ff4a4a"/>
  </g>

  <!-- Main SOURCE text -->
  <g transform="translate(108, 74)">
    <rect x="5" y="0" width="3.5" height="3.5" fill="#e2ffe8"/><rect x="10" y="0" width="3.5" height="3.5" fill="#e2ffe8"/><rect x="15" y="0" width="3.5" height="3.5" fill="#e2ffe8"/><rect x="20" y="0" width="3.5" height="3.5" fill="#e2ffe8"/><rect x="0" y="5" width="3.5" height="3.5" fill="#e2ffe8"/><rect x="0" y="10" width="3.5" height="3.5" fill="#e2ffe8"/><rect x="5" y="15" width="3.5" height="3.5" fill="#e2ffe8"/><rect x="10" y="15" width="3.5" height="3.5" fill="#e2ffe8"/><rect x="15" y="15" width="3.5" height="3.5" fill="#e2ffe8"/><rect x="20" y="20" width="3.5" height="3.5" fill="#e2ffe8"/><rect x="20" y="25" width="3.5" height="3.5" fill="#e2ffe8"/><rect x="0" y="30" width="3.5" height="3.5" fill="#e2ffe8"/><rect x="5" y="30" width="3.5" height="3.5" fill="#e2ffe8"/><rect x="10" y="30" width="3.5" height="3.5" fill="#e2ffe8"/><rect x="15" y="30" width="3.5" height="3.5" fill="#e2ffe8"/>
    <rect x="37" y="0" width="3.5" height="3.5" fill="#e2ffe8"/><rect x="42" y="0" width="3.5" height="3.5" fill="#e2ffe8"/><rect x="47" y="0" width="3.5" height="3.5" fill="#e2ffe8"/><rect x="32" y="5" width="3.5" height="3.5" fill="#e2ffe8"/><rect x="52" y="5" width="3.5" height="3.5" fill="#e2ffe8"/><rect x="32" y="10" width="3.5" height="3.5" fill="#e2ffe8"/><rect x="52" y="10" width="3.5" height="3.5" fill="#e2ffe8"/><rect x="32" y="15" width="3.5" height="3.5" fill="#e2ffe8"/><rect x="52" y="15" width="3.5" height="3.5" fill="#e2ffe8"/><rect x="32" y="20" width="3.5" height="3.5" fill="#e2ffe8"/><rect x="52" y="20" width="3.5" height="3.5" fill="#e2ffe8"/><rect x="32" y="25" width="3.5" height="3.5" fill="#e2ffe8"/><rect x="52" y="25" width="3.5" height="3.5" fill="#e2ffe8"/><rect x="37" y="30" width="3.5" height="3.5" fill="#e2ffe8"/><rect x="42" y="30" width="3.5" height="3.5" fill="#e2ffe8"/><rect x="47" y="30" width="3.5" height="3.5" fill="#e2ffe8"/>
    <rect x="64" y="0" width="3.5" height="3.5" fill="#e2ffe8"/><rect x="84" y="0" width="3.5" height="3.5" fill="#e2ffe8"/><rect x="64" y="5" width="3.5" height="3.5" fill="#e2ffe8"/><rect x="84" y="5" width="3.5" height="3.5" fill="#e2ffe8"/><rect x="64" y="10" width="3.5" height="3.5" fill="#e2ffe8"/><rect x="84" y="10" width="3.5" height="3.5" fill="#e2ffe8"/><rect x="64" y="15" width="3.5" height="3.5" fill="#e2ffe8"/><rect x="84" y="15" width="3.5" height="3.5" fill="#e2ffe8"/><rect x="64" y="20" width="3.5" height="3.5" fill="#e2ffe8"/><rect x="84" y="20" width="3.5" height="3.5" fill="#e2ffe8"/><rect x="64" y="25" width="3.5" height="3.5" fill="#e2ffe8"/><rect x="84" y="25" width="3.5" height="3.5" fill="#e2ffe8"/><rect x="69" y="30" width="3.5" height="3.5" fill="#e2ffe8"/><rect x="74" y="30" width="3.5" height="3.5" fill="#e2ffe8"/><rect x="79" y="30" width="3.5" height="3.5" fill="#e2ffe8"/>
    <rect x="96" y="0" width="3.5" height="3.5" fill="#e2ffe8"/><rect x="101" y="0" width="3.5" height="3.5" fill="#e2ffe8"/><rect x="106" y="0" width="3.5" height="3.5" fill="#e2ffe8"/><rect x="111" y="0" width="3.5" height="3.5" fill="#e2ffe8"/><rect x="96" y="5" width="3.5" height="3.5" fill="#e2ffe8"/><rect x="116" y="5" width="3.5" height="3.5" fill="#e2ffe8"/><rect x="96" y="10" width="3.5" height="3.5" fill="#e2ffe8"/><rect x="116" y="10" width="3.5" height="3.5" fill="#e2ffe8"/><rect x="96" y="15" width="3.5" height="3.5" fill="#e2ffe8"/><rect x="101" y="15" width="3.5" height="3.5" fill="#e2ffe8"/><rect x="106" y="15" width="3.5" height="3.5" fill="#e2ffe8"/><rect x="111" y="15" width="3.5" height="3.5" fill="#e2ffe8"/><rect x="96" y="20" width="3.5" height="3.5" fill="#e2ffe8"/><rect x="106" y="20" width="3.5" height="3.5" fill="#e2ffe8"/><rect x="96" y="25" width="3.5" height="3.5" fill="#e2ffe8"/><rect x="111" y="25" width="3.5" height="3.5" fill="#e2ffe8"/><rect x="96" y="30" width="3.5" height="3.5" fill="#e2ffe8"/><rect x="116" y="30" width="3.5" height="3.5" fill="#e2ffe8"/>
    <rect x="133" y="0" width="3.5" height="3.5" fill="#e2ffe8"/><rect x="138" y="0" width="3.5" height="3.5" fill="#e2ffe8"/><rect x="143" y="0" width="3.5" height="3.5" fill="#e2ffe8"/><rect x="148" y="0" width="3.5" height="3.5" fill="#e2ffe8"/><rect x="128" y="5" width="3.5" height="3.5" fill="#e2ffe8"/><rect x="128" y="10" width="3.5" height="3.5" fill="#e2ffe8"/><rect x="128" y="15" width="3.5" height="3.5" fill="#e2ffe8"/><rect x="128" y="20" width="3.5" height="3.5" fill="#e2ffe8"/><rect x="128" y="25" width="3.5" height="3.5" fill="#e2ffe8"/><rect x="133" y="30" width="3.5" height="3.5" fill="#e2ffe8"/><rect x="138" y="30" width="3.5" height="3.5" fill="#e2ffe8"/><rect x="143" y="30" width="3.5" height="3.5" fill="#e2ffe8"/><rect x="148" y="30" width="3.5" height="3.5" fill="#e2ffe8"/>
    <rect x="160" y="0" width="3.5" height="3.5" fill="#e2ffe8"/><rect x="165" y="0" width="3.5" height="3.5" fill="#e2ffe8"/><rect x="170" y="0" width="3.5" height="3.5" fill="#e2ffe8"/><rect x="175" y="0" width="3.5" height="3.5" fill="#e2ffe8"/><rect x="180" y="0" width="3.5" height="3.5" fill="#e2ffe8"/><rect x="160" y="5" width="3.5" height="3.5" fill="#e2ffe8"/><rect x="160" y="10" width="3.5" height="3.5" fill="#e2ffe8"/><rect x="160" y="15" width="3.5" height="3.5" fill="#e2ffe8"/><rect x="165" y="15" width="3.5" height="3.5" fill="#e2ffe8"/><rect x="170" y="15" width="3.5" height="3.5" fill="#e2ffe8"/><rect x="175" y="15" width="3.5" height="3.5" fill="#e2ffe8"/><rect x="160" y="20" width="3.5" height="3.5" fill="#e2ffe8"/><rect x="160" y="25" width="3.5" height="3.5" fill="#e2ffe8"/><rect x="160" y="30" width="3.5" height="3.5" fill="#e2ffe8"/><rect x="165" y="30" width="3.5" height="3.5" fill="#e2ffe8"/><rect x="170" y="30" width="3.5" height="3.5" fill="#e2ffe8"/><rect x="175" y="30" width="3.5" height="3.5" fill="#e2ffe8"/><rect x="180" y="30" width="3.5" height="3.5" fill="#e2ffe8"/>
  </g>

  <!-- Glitch scan lines -->
  <line x1="106" y1="60" x2="300" y2="60" stroke="#4ade80" stroke-width="0.3" opacity="0.08"/>
  <line x1="110" y1="110" x2="290" y2="110" stroke="#4ade80" stroke-width="0.3" opacity="0.06"/>
</svg>
